<svg xmlns="http://www.w3.org/2000/svg" width="24" height="24" viewBox="0 0 24 24" fill="none"
 stroke="white" stroke-width="2" stroke-linecap="round" stroke-linejoin="round">
  <path d="M12 1C5.925 1 1 5.925 1 12c0 4.865 3.163 8.984 7.547 
  10.435.552.101.753-.24.753-.534 0-.264-.01-1.123-.015-2.036-3.072.668-3.719-1.482-3.719-1.482-.502-1.277-1.226-1.617-1.226-1.617-.999-.683.076-.669.076-.669 
  1.105.078 1.686 1.135 1.686 1.135.982 1.683 2.576 1.196 
  3.204.915.099-.711.385-1.196.701-1.471-2.452-.28-5.033-1.226-5.033-5.46 
  0-1.206.43-2.192 1.136-2.963-.114-.279-.492-1.404.108-2.926 0 0 
  .926-.296 3.033 1.133a10.564 10.564 0 0 1 2.758-.37 10.58 10.58 
  0 0 1 2.758.37c2.106-1.429 3.03-1.133 
  3.03-1.133.602 1.522.224 2.647.11 
  2.926.708.771 1.135 1.757 1.135 2.963 0 4.243-2.585 
  5.177-5.044 5.452.396.34.75 1.01.75 
  2.036 0 1.47-.013 2.653-.013 
  3.016 0 .296.2.64.757.53C19.842 
  20.98 23 16.86 23 12c0-6.075-4.925-11-11-11z"/>
</svg>