<svg xmlns="http://www.w3.org/2000/svg" width="24" height="24" viewBox="0 0 24 24" fill="none"
 stroke="white" stroke-width="2" stroke-linecap="round" stroke-linejoin="round">
  <path d="M23 3a10.9 10.9 0 0 1-3.14 1.53A4.48 4.48 0 0 0 22.4 1.64a9.03 
  9.03 0 0 1-2.88 1.1 4.52 4.52 0 0 0-7.86 4.13A12.84 12.84 0 0 1 3 2.6a4.48 
  4.48 0 0 0 1.4 6.07A4.5 4.5 0 0 1 2.8 8v.05a4.52 4.52 0 0 0 3.63 
  4.43 4.52 4.52 0 0 1-2.04.08 4.51 4.51 0 0 0 4.21 
  3.13A9.06 9.06 0 0 1 1 19.54 12.79 12.79 0 0 0 7.29 
  21c8.4 0 13-7 13-13v-.6A9.18 9.18 0 0 0 23 3z"/>
</svg>